<svg width="103" height="16" viewBox="0 0 103 16" fill="none" xmlns="http://www.w3.org/2000/svg">
<path d="M46.0544 4.5761L48.2015 3.08484H41.0133V12.0178H48.2015V10.5265H43.0671V8.24578H47.4547V6.75451H43.0671V4.5761H46.0544Z" fill="#118C27"/>
<path d="M35.5832 6.56445H33.0938V4.5761H37.0769L39.224 3.08484H31.04V12.0178H35.3187C37.7148 12.0178 39.0996 10.9944 39.0996 9.21071C39.0996 7.50014 37.8548 6.56445 35.5832 6.56445ZM35.2409 10.5265H33.0938V8.05571H35.2409C36.5479 8.05571 37.1547 8.46508 37.1547 9.29843C37.1547 10.1318 36.5012 10.5265 35.2409 10.5265Z" fill="#118C27"/>
<path d="M54.0205 3.08484H50.1152V12.0178H52.169V9.48849H54.0361C56.5255 9.48849 58.0814 8.2604 58.0814 6.28667C58.0814 4.31294 56.5255 3.08484 54.0205 3.08484ZM53.9738 7.99723H52.1535V4.5761H53.9738C55.2964 4.5761 56.0121 5.19015 56.0121 6.28667C56.0121 7.38318 55.2964 7.99723 53.9738 7.99723Z" fill="#118C27"/>
<path d="M27.5237 10.0879C26.9792 10.3657 26.3724 10.5119 25.75 10.5119C23.8985 10.5119 22.5604 9.26921 22.5604 7.55864C22.5604 5.84808 23.8985 4.60536 25.75 4.60536C26.419 4.59074 27.0725 4.79542 27.6171 5.16093L29.0952 4.13751L29.0018 4.04979C28.1461 3.3334 26.9947 2.9679 25.6878 2.9679C24.2719 2.9679 22.9805 3.42112 22.047 4.23985C21.1134 5.08783 20.5844 6.27206 20.6156 7.50016C20.6 8.74288 21.1134 9.94174 22.047 10.819C23.0272 11.6815 24.3341 12.164 25.6722 12.1348C27.1503 12.1348 28.4417 11.6523 29.313 10.7751L27.9905 9.85402L27.5237 10.0879Z" fill="#118C27"/>
<path d="M82.7733 3.09946V12.0324H84.8271V8.37736H89.1992V12.0324H91.253V3.09946H89.1992V6.76913H84.8271V3.09946H82.7733ZM79.2415 12.0324H81.4042L77.39 3.09946H75.3051L71.2131 12.0324H73.2824L74.107 10.2341H78.4635L79.2415 12.0324ZM74.7294 8.74286L76.3164 5.16091L77.8101 8.74286H74.7294ZM95.8584 8.42122H97.1342L100.277 12.0178H102.922L98.7212 7.3978L102.393 3.08484H100.044L96.9942 6.91534H95.8584V3.08484H93.8046V12.0178H95.8584V8.42122ZM64.4294 6.57907V4.59072H69.7972V3.09946H62.3756V12.0324H66.6543C69.0504 12.0324 70.4351 11.009 70.4351 9.22533C70.4351 7.51476 69.1904 6.57907 66.9188 6.57907H64.4294ZM64.4294 10.5411V8.07033H66.5765C67.8835 8.07033 68.4903 8.4797 68.4903 9.31305C68.4903 10.1464 67.8523 10.5558 66.5765 10.5558H64.4294V10.5411Z" fill="#118C27"/>
<path d="M14.1897 3.02637C14.5631 3.47959 14.8743 3.97668 15.1388 4.50301L7.95056 9.4885L4.93213 7.70484V5.57028L7.935 7.33933L14.1897 3.02637Z" fill="#118C27"/>
<path d="M1.86702 7.55871C1.86702 7.45637 1.86702 7.36865 1.88258 7.26631L0.0621898 7.17859C0.0621898 7.29555 0.0466309 7.42713 0.0466309 7.54409C0.0466309 9.59092 0.933489 11.4477 2.36491 12.7928L3.6563 11.5793C2.55162 10.5559 1.86702 9.1377 1.86702 7.55871Z" fill="url(#paint0_linear)"/>
<path d="M7.93496 1.85681C8.04387 1.85681 8.13722 1.85681 8.24614 1.87143L8.33949 0.16086C8.21502 0.16086 8.07499 0.14624 7.95052 0.14624C5.77227 0.14624 3.79629 0.979593 2.36487 2.32465L3.65626 3.53813C4.74538 2.5001 6.27015 1.85681 7.93496 1.85681Z" fill="url(#paint1_linear)"/>
<path d="M7.93505 13.2605C7.82614 13.2605 7.73278 13.2605 7.62387 13.2459L7.53052 14.9565C7.65499 14.9565 7.79502 14.9711 7.91949 14.9711C10.0977 14.9711 12.0737 14.1378 13.5051 12.7927L12.2137 11.5792C11.1246 12.6319 9.61541 13.2605 7.93505 13.2605Z" fill="url(#paint2_linear)"/>
<path d="M11.358 2.85095L12.8984 1.78368C11.5447 0.760261 9.81769 0.131592 7.93506 0.131592V1.84216C9.21089 1.85678 10.3934 2.22228 11.358 2.85095Z" fill="url(#paint3_linear)"/>
<path d="M15.839 7.55871C15.839 7.10548 15.7923 6.66688 15.7145 6.22827L14.0186 7.41251C14.0186 7.45637 14.0186 7.51485 14.0186 7.55871C14.0186 9.24004 13.2406 10.7459 12.0115 11.784L13.2406 13.0559C14.8276 11.7109 15.839 9.73712 15.839 7.55871Z" fill="#118C27"/>
<path d="M7.93499 13.2605C6.14571 13.2605 4.54315 12.5295 3.43846 11.3745L2.08484 12.5295C3.53182 14.0354 5.61671 14.9711 7.93499 14.9711V13.2605Z" fill="url(#paint4_linear)"/>
<path d="M3.87412 3.33336L2.64497 2.0614C1.0424 3.42108 0.0466309 5.38019 0.0466309 7.5586H1.86702C1.86702 5.8919 2.64497 4.3714 3.87412 3.33336Z" fill="url(#paint5_linear)"/>
<defs>
<linearGradient id="paint0_linear" x1="2.17661" y1="12.5846" x2="0.510459" y2="7.47569" gradientUnits="userSpaceOnUse">
<stop offset="0.1444" stop-color="#F2E913"/>
<stop offset="0.3037" stop-color="#E7E518"/>
<stop offset="0.5823" stop-color="#CADB26"/>
<stop offset="0.891" stop-color="#A3CD39"/>
</linearGradient>
<linearGradient id="paint1_linear" x1="2.88377" y1="2.12633" x2="7.52905" y2="0.248474" gradientUnits="userSpaceOnUse">
<stop offset="0.0592" stop-color="#0FA8E0"/>
<stop offset="0.5385" stop-color="#0099F9"/>
<stop offset="0.9234" stop-color="#0291EB"/>
</linearGradient>
<linearGradient id="paint2_linear" x1="7.42363" y1="13.512" x2="13.0154" y2="12.1713" gradientUnits="userSpaceOnUse">
<stop offset="0.1226" stop-color="#A3CD39"/>
<stop offset="0.2846" stop-color="#86C339"/>
<stop offset="0.8693" stop-color="#21A038"/>
</linearGradient>
<linearGradient id="paint3_linear" x1="7.56104" y1="1.22604" x2="12.1886" y2="2.74067" gradientUnits="userSpaceOnUse">
<stop offset="0.0566" stop-color="#0291EB"/>
<stop offset="0.79" stop-color="#0C8ACB"/>
</linearGradient>
<linearGradient id="paint4_linear" x1="2.5477" y1="12.8073" x2="7.49446" y2="14.768" gradientUnits="userSpaceOnUse">
<stop offset="0.1324" stop-color="#F2E913"/>
<stop offset="0.2977" stop-color="#EBE716"/>
<stop offset="0.5306" stop-color="#D9E01F"/>
<stop offset="0.8023" stop-color="#BBD62D"/>
<stop offset="0.9829" stop-color="#A3CD39"/>
</linearGradient>
<linearGradient id="paint5_linear" x1="1.43178" y1="7.76522" x2="3.23805" y2="2.78076" gradientUnits="userSpaceOnUse">
<stop offset="0.0698" stop-color="#A3CD39"/>
<stop offset="0.2599" stop-color="#81C55F"/>
<stop offset="0.9216" stop-color="#0FA8E0"/>
</linearGradient>
</defs>
</svg>
